<svg xmlns="http://www.w3.org/2000/svg" viewBox="0 0 190.72 190.72">
    <defs>
        <style>
            .cls-1{fill:#ecb95d;}.cls-2{font-size:17.12px;font-family:MyanmarText-Bold, Myanmar
            Text;font-weight:700;letter-spacing:0.02em;}.cls-2,.cls-3{fill:#fff;}.cls-4{fill:#dbdbdb;}.cls-5{fill:#272525;}.cls-6{fill:#ba934a;}.cls-7{fill:#232020;}
        </style>
    </defs>
    <g id="Layer_2" data-name="Layer 2">
        <g id="OBJECTS">
            <path class="cls-1"
                d="M95.36,190.72a95.36,95.36,0,1,1,95.36-95.36A95.47,95.47,0,0,1,95.36,190.72ZM95.36,3a92.36,92.36,0,1,0,92.36,92.36A92.46,92.46,0,0,0,95.36,3Z" />
            <text class="cls-2" transform="translate(50.97 165.63)">Loading ...</text>
            <path class="cls-3"
                d="M72.84,131.73h0a4,4,0,0,1-.85-5.58l34.34-46.62,6.42,4.72L78.41,130.88A4,4,0,0,1,72.84,131.73Z" />
            <path class="cls-3"
                d="M139.75,62.31,126.92,79.73a12.94,12.94,0,0,1-16.19,4.11A12.73,12.73,0,0,1,106.23,65l13-17.71a2.93,2.93,0,0,1,4.11-.62h0L109.1,66l2.53,1.87,12.93-17.55a2.29,2.29,0,0,1,3.2-.49h0a2.75,2.75,0,0,1,.59,3.85L115.69,70.87l2.55,1.88L130.59,56a3.26,3.26,0,0,1,4.56-.69h0a1.77,1.77,0,0,1,.38,2.48l-13.23,18,2.55,1.87,14.28-19.39h0A2.92,2.92,0,0,1,139.75,62.31Z" />
            <path class="cls-3"
                d="M119.36,125.58l-30.62-45c3.62-5.29,2.73-14.44-2.68-22.4-6.44-9.48-16.83-13.66-23.19-9.33s-6.31,15.52.13,25c5.38,7.91,13.5,12.1,19.74,10.76l-.22.16,30.63,45.07a3.75,3.75,0,0,0,6.21-4.22Z" />
            <polygon class="cls-4"
                points="101.58 99.42 96.86 105.83 101.27 112.31 105.81 105.66 101.58 99.42" />
            <polygon class="cls-4"
                points="92.11 98.84 96.86 92.39 93.28 87.22 88.16 93.03 92.11 98.84" />
            <path class="cls-5"
                d="M75.19,133a4.48,4.48,0,0,1-3.6-7.14l33.91-46a13.15,13.15,0,0,1,.33-15.18l13-17.71a3.45,3.45,0,0,1,4.81-.73l.4.3L109.8,65.91l1.72,1.27L124.16,50a2.79,2.79,0,0,1,3.9-.6,3.27,3.27,0,0,1,.69,4.55L116.39,70.76l1.74,1.29,12.06-16.37a3.72,3.72,0,0,1,2.46-1.49,3.78,3.78,0,0,1,2.8.69,2.25,2.25,0,0,1,.9,1.49,2.29,2.29,0,0,1-.42,1.7L123,75.63l1.74,1.29L139,57.52l.41.29a3.43,3.43,0,0,1,.72,4.79L127.32,80a13.66,13.66,0,0,1-14.61,5.14l-33.9,46A4.47,4.47,0,0,1,75.19,133Zm46.45-86.45a2.46,2.46,0,0,0-2,1l-13,17.71a12.17,12.17,0,0,0-.11,14.31l.21.29L72.39,126.45A3.49,3.49,0,0,0,78,130.58L112.33,84l.34.11a12.62,12.62,0,0,0,13.85-4.67L139.35,62a2.48,2.48,0,0,0,.45-1.81,2.43,2.43,0,0,0-.59-1.24L125,78.32l-3.36-2.48,13.53-18.36a1.31,1.31,0,0,0,.23-1,1.27,1.27,0,0,0-.5-.83,2.78,2.78,0,0,0-3.87.58L118.34,73.45,115,71l13-17.58a2.26,2.26,0,0,0-.49-3.15,1.79,1.79,0,0,0-2.5.38l-13.22,18-3.34-2.46,14.25-19.35A2.39,2.39,0,0,0,121.64,46.55Z" />
            <path class="cls-5"
                d="M116.26,131.94a4.43,4.43,0,0,1-.81-.07,4.2,4.2,0,0,1-2.7-1.79l-16.5-24.27,5.35-7.25,18.17,26.75a4.25,4.25,0,0,1-1.13,5.9h0A4.23,4.23,0,0,1,116.26,131.94Zm-18.79-26.1,16.1,23.68a3.23,3.23,0,0,0,2.07,1.36,3.19,3.19,0,0,0,2.44-.5,3.26,3.26,0,0,0,.87-4.51l-17.39-25.58Z" />
            <path class="cls-5"
                d="M92.09,99.7,82.22,85.18c-6.47,1-14.44-3.46-19.63-11.09C56,64.4,56,52.87,62.59,48.39c3.22-2.18,7.49-2.38,12-.56a27,27,0,0,1,11.85,10c5.31,7.8,6.46,17.06,2.87,22.68l8.1,11.91ZM83.21,84.86,92.13,98l4.09-5.55L88.13,80.55l.2-.29C91.92,75,90.82,66,85.65,58.42a26.09,26.09,0,0,0-11.4-9.66c-4.22-1.7-8.17-1.53-11.1.46-6.13,4.17-6,15.07.26,24.31,5.14,7.54,13,11.89,19.22,10.56l2.49-.54Z" />
            <circle class="cls-3" cx="59.97" cy="101.09" r="8.13" />
            <path class="cls-3"
                d="M138.77,95.36c-4,1.18-4.9,2.14-6.08,6.09-1.19-4-2.14-4.91-6.09-6.09,4-1.18,4.9-2.14,6.09-6.09C133.87,93.22,134.82,94.18,138.77,95.36Z" />
            <path class="cls-6"
                d="M42.44,127.89c-.22-.18-22.64-19-15.77-55.25l.82.16C20.72,108.53,42.75,127.06,43,127.25Z" />
            <path class="cls-6"
                d="M38.6,123.79S30,128,24.5,118.3C24.5,118.3,32.4,116.06,38.6,123.79Z" />
            <path class="cls-6"
                d="M38.5,123.87s8.51-4.44,4-14.6C42.45,109.27,36,114.29,38.5,123.87Z" />
            <path class="cls-6"
                d="M31.47,112.24s-8.89,3.61-13.69-6.43C17.78,105.81,25.8,104.1,31.47,112.24Z" />
            <path class="cls-6"
                d="M31.37,112.31s8.79-3.87,4.92-14.31C36.29,98,29.48,102.58,31.37,112.31Z" />
            <path class="cls-6"
                d="M27.11,99.28s-9.49,1.41-11.79-9.49C15.32,89.79,23.53,90,27.11,99.28Z" />
            <path class="cls-6" d="M27,99.33s9.45-1.68,8.16-12.74C35.16,86.59,27.46,89.42,27,99.33Z" />
            <path class="cls-6"
                d="M26.23,83.84s-9.38,2.06-12.42-8.65C13.81,75.19,22,74.86,26.23,83.84Z" />
            <path class="cls-6"
                d="M26.11,83.89s9.32-2.32,7.27-13.27C33.38,70.62,25.89,74,26.11,83.89Z" />
            <path class="cls-6" d="M26.44,76s4.67-5.31-1.15-11.08C25.29,64.92,22.16,70.09,26.44,76Z" />
            <path class="cls-6"
                d="M148.28,127.89c.22-.18,22.64-19,15.77-55.25l-.82.16c6.77,35.73-15.26,54.26-15.48,54.45Z" />
            <path class="cls-6"
                d="M152.12,123.79s8.63,4.21,14.1-5.49C166.22,118.3,158.32,116.06,152.12,123.79Z" />
            <path class="cls-6"
                d="M152.21,123.87s-8.5-4.44-3.94-14.6C148.27,109.27,154.76,114.29,152.21,123.87Z" />
            <path class="cls-6"
                d="M159.25,112.24s8.89,3.61,13.69-6.43C172.94,105.81,164.92,104.1,159.25,112.24Z" />
            <path class="cls-6"
                d="M159.35,112.31s-8.79-3.87-4.92-14.31C154.43,98,161.24,102.58,159.35,112.31Z" />
            <path class="cls-6"
                d="M163.61,99.28s9.49,1.41,11.79-9.49C175.4,89.79,167.19,90,163.61,99.28Z" />
            <path class="cls-6"
                d="M163.72,99.33s-9.45-1.68-8.16-12.74C155.56,86.59,163.26,89.42,163.72,99.33Z" />
            <path class="cls-6"
                d="M164.49,83.84s9.38,2.06,12.42-8.65C176.91,75.19,168.71,74.86,164.49,83.84Z" />
            <path class="cls-6"
                d="M164.61,83.89s-9.32-2.32-7.27-13.27C157.34,70.62,164.83,74,164.61,83.89Z" />
            <path class="cls-6"
                d="M164.27,76s-4.66-5.31,1.16-11.08C165.43,64.92,168.56,70.09,164.27,76Z" />
            <path class="cls-7"
                d="M68.28,65.87a43.78,43.78,0,0,0,10,12.19,40.64,40.64,0,0,1-7.64-4.16,21.61,21.61,0,0,1-6.8-7,12,12,0,0,1-1.53-7.28c.15-1.17,1.57-5.93,3.38-5.67,1.34.19.8,3.21.74,4.1A13.23,13.23,0,0,0,68.28,65.87Z" />
        </g>
    </g>
</svg>